<svg width="35" height="35" viewBox="0 0 35 35" fill="none" xmlns="http://www.w3.org/2000/svg">
<path d="M17.5001 23.3333C20.7217 23.3333 23.3334 20.7216 23.3334 17.5C23.3334 14.2783 20.7217 11.6666 17.5001 11.6666C14.2784 11.6666 11.6667 14.2783 11.6667 17.5C11.6667 20.7216 14.2784 23.3333 17.5001 23.3333Z" stroke="#4731D3" stroke-width="3" stroke-linecap="round" stroke-linejoin="round"/>
<path d="M23.3334 11.6666V18.9582C23.3334 20.1186 23.7944 21.2314 24.6148 22.0518C25.4353 22.8723 26.5481 23.3332 27.7084 23.3332C28.8688 23.3332 29.9816 22.8723 30.802 22.0518C31.6225 21.2314 32.0834 20.1186 32.0834 18.9582V17.4999C32.0832 14.2085 30.9696 11.0139 28.9236 8.43568C26.8776 5.85743 24.0197 4.04711 20.8144 3.29909C17.6091 2.55107 14.245 2.90934 11.2691 4.31565C8.29329 5.72196 5.88067 8.09359 4.4236 11.0449C2.96652 13.9962 2.55067 17.3537 3.24367 20.5713C3.93668 23.789 5.69777 26.6775 8.2406 28.7674C10.7834 30.8572 13.9584 32.0254 17.2494 32.082C20.5403 32.1386 23.7536 31.0803 26.3668 29.0791" stroke="#4731D3" stroke-width="3" stroke-linecap="round" stroke-linejoin="round"/>
</svg>
