<svg width="35" height="35" viewBox="0 0 35 35" fill="none" xmlns="http://www.w3.org/2000/svg">
<path d="M24.7917 2.91663H10.2084C6.18134 2.91663 2.91675 6.18122 2.91675 10.2083V24.7916C2.91675 28.8187 6.18134 32.0833 10.2084 32.0833H24.7917C28.8188 32.0833 32.0834 28.8187 32.0834 24.7916V10.2083C32.0834 6.18122 28.8188 2.91663 24.7917 2.91663Z" stroke="#4731D3" stroke-width="3" stroke-linecap="round" stroke-linejoin="round"/>
<path d="M23.3333 16.5811C23.5133 17.7948 23.306 19.0343 22.7409 20.1234C22.1758 21.2125 21.2817 22.0956 20.1857 22.6473C19.0897 23.1989 17.8477 23.3909 16.6363 23.196C15.425 23.0011 14.3059 22.4291 13.4383 21.5615C12.5707 20.6939 11.9988 19.5749 11.8038 18.3635C11.6089 17.1521 11.8009 15.9101 12.3525 14.8141C12.9042 13.7182 13.7873 12.824 14.8764 12.2589C15.9655 11.6938 17.205 11.4865 18.4187 11.6665C19.6567 11.8501 20.8029 12.427 21.6879 13.3119C22.5728 14.1969 23.1497 15.3431 23.3333 16.5811Z" stroke="#4731D3" stroke-width="3" stroke-linecap="round" stroke-linejoin="round"/>
<path d="M25.5208 9.47913H25.5353" stroke="#4731D3" stroke-width="3" stroke-linecap="round" stroke-linejoin="round"/>
</svg>
