<svg width="35" height="35" viewBox="0 0 35 35" fill="none" xmlns="http://www.w3.org/2000/svg">
<g clip-path="url(#clip0_10_135)">
<path d="M33.5416 4.37489C32.1451 5.35997 30.5988 6.11339 28.9624 6.60614C28.0841 5.59626 26.9169 4.88049 25.6185 4.55562C24.3202 4.23075 22.9533 4.31247 21.703 4.78972C20.4526 5.26697 19.3789 6.11673 18.6272 7.22406C17.8755 8.3314 17.482 9.64288 17.4999 10.9811V12.4395C14.9371 12.5059 12.3976 11.9375 10.1076 10.7849C7.81767 9.6323 5.8483 7.93124 4.37492 5.83323C4.37492 5.83323 -1.45841 18.9582 11.6666 24.7916C8.66319 26.8303 5.08536 27.8525 1.45825 27.7082C14.5833 34.9999 30.6249 27.7082 30.6249 10.9374C30.6236 10.5312 30.5845 10.126 30.5083 9.72698C31.9966 8.25915 33.047 6.40593 33.5416 4.37489V4.37489Z" stroke="#4731D3" stroke-width="3" stroke-linecap="round" stroke-linejoin="round"/>
</g>
<defs>
<clipPath id="clip0_10_135">
<rect width="35" height="35" fill="white"/>
</clipPath>
</defs>
</svg>
